<svg xmlns="http://www.w3.org/2000/svg" xmlns:xlink="http://www.w3.org/1999/xlink" width="96.17" height="278" viewBox="0 0 96.17 278"><svg width="94.69" height="92.35" viewBox="-10 -10 94.69 92.35" id="01-house" y="0"><path d="M29.5 65.34h16V41.41h-16v23.94zm13.07-2.93H32.44V44.35h10.13V62.4z"></path><path d="M72.62 39.44l2.08-2.08-9.91-9.91V.47H50.97v13.16L37.35 0 0 37.36l2.08 2.08 7.83-7.83v37.8H5.97v2.94h63.88V69.4h-5.06V31.6l7.83 7.83zM53.92 3.41h7.93v21.1l-7.94-7.94V3.41zm7.93 66h-49V28.67l24.5-24.5 24.5 24.5v40.74z"></path><path d="M29.75 27.21a7.75 7.75 0 1 0 15.5 0 7.75 7.75 0 0 0-15.5 0zm7.75-4.97a4.97 4.97 0 1 1 0 9.94 4.97 4.97 0 0 1 0-9.94zM16.91 41.41h3v3.94h-3zm5.94 0h3v3.94h-3zm-5.94 6h3v3.94h-3zm5.94 0h3v3.94h-3zm26-6h3v3.94h-3zm5.93 0h3v3.94h-3zm-5.93 6h3v3.94h-3zm5.93 0h3v3.94h-3z"></path></svg><svg width="83" height="95.08" viewBox="-10 -10 83 95.08" id="02-gift" y="93"><path d="M60.16 22.23H35.77c13.6-6.82 14.69-11.12 14.19-13.52-1.15-3.92-5.6-6.94-9.85-5.34-5.49 2.06-7.03 10.26-8.52 16.19-1.89-6-3.72-13.65-8-17.53a7.19 7.19 0 0 0-5.68-2c-3.97.35-9.65 5.32-7.35 10.85 2.22 5.31 9.54 8.67 14.36 11.35H2.83A2.84 2.84 0 0 0 0 25.07v11.18a2.84 2.84 0 0 0 2.83 2.83h.27v36h56.96v-36h.1A2.84 2.84 0 0 0 63 36.25V25.07a2.85 2.85 0 0 0-2.84-2.84zM41.77 5.87c2.08-.3 4.91 1.29 5.18 3.17.39 2.73-3.35 5.2-5 6.35-2.49 1.72-4.86 2.6-7.18 4 .87-3.64 2.5-12.85 7-13.52zm-22.53 9.85c-2.19-1.47-6.44-4.38-6.34-7.68.11-3.55 5.66-6.49 8.68-3.84 3.8 3.33 5.63 10.98 7.01 16.36-3.2-1.52-6.23-2.75-9.35-4.84zm5.88 56.43H6.04V39.08h19.07v33.07zm0-36.07H3V25.23h22.11v10.85zm10 36.07h-7.06V25.23h7.07v46.92zm22.02 0H38.05V39.08h19.07v33.07zM60 36.08H38.05V25.23H60v10.85z"></path></svg><svg width="96.17" height="88.96" viewBox="-10 -10 96.17 88.96" id="03-eat" y="189"><path d="M71.91 46.04H4.25A4.26 4.26 0 0 0 0 50.3v3.46A4.27 4.27 0 0 0 4.25 58h.96v1.04a9.95 9.95 0 0 0 9.92 9.92h45.9a9.95 9.95 0 0 0 9.93-9.92V58h.95a4.26 4.26 0 0 0 4.26-4.25v-3.46a4.26 4.26 0 0 0-4.26-4.25zm-3.95 13c0 3.81-3.1 6.92-6.92 6.92H15.13a6.93 6.93 0 0 1-6.92-6.92V58h59.75v1.04zm5.2-5.3c0 .69-.57 1.26-1.25 1.26H4.25C3.57 55 3 54.43 3 53.75v-3.46c0-.68.57-1.25 1.25-1.25h67.66c.68 0 1.26.57 1.26 1.25v3.46zm-57-15.88l5.48 4 5.47-4 5.48 4 5.48-4 5.48 4 5.48-4 5.48 4 5.47-4 5.49 4 6.37-4.65-1.77-2.42-4.6 3.35-5.49-4-5.47 4-5.48-4-5.48 4-5.48-4-5.48 4-5.48-4-5.47 4-5.48-4-5.47 4-4.6-3.35-1.77 2.42 6.37 4.65zm54.73-6.76c.04-.62.05-2.62.04-3C70.24 12.47 55.8 0 38.08 0S5.92 12.48 5.24 28.1c-.02.38 0 2.38.04 3h65.6zM38.09 3C54.1 3 67.22 14.15 67.91 28.1H8.24C8.94 14.14 22.05 3 38.08 3z"></path><circle cx="38.08" cy="15.04" r="2"></circle><circle cx="30.08" cy="10.08" r="2"></circle><circle cx="46.08" cy="10.08" r="2"></circle></svg></svg>