<svg xmlns="http://www.w3.org/2000/svg" xmlns:xlink="http://www.w3.org/1999/xlink" width="96.17" height="498" viewBox="0 0 96.17 498"><svg width="94.69" height="92.35" viewBox="-10 -10 94.69 92.35" id="01-house" y="0"><path d="M29.5 65.34h16V41.41h-16v23.94zm13.07-2.93H32.44V44.35h10.13V62.4z"></path><path d="M72.62 39.44l2.08-2.08-9.91-9.91V.47H50.97v13.16L37.35 0 0 37.36l2.08 2.08 7.83-7.83v37.8H5.97v2.94h63.88V69.4h-5.06V31.6l7.83 7.83zM53.92 3.41h7.93v21.1l-7.94-7.94V3.41zm7.93 66h-49V28.67l24.5-24.5 24.5 24.5v40.74z"></path><path d="M29.75 27.21a7.75 7.75 0 1 0 15.5 0 7.75 7.75 0 0 0-15.5 0zm7.75-4.97a4.97 4.97 0 1 1 0 9.94 4.97 4.97 0 0 1 0-9.94zM16.91 41.41h3v3.94h-3zm5.94 0h3v3.94h-3zm-5.94 6h3v3.94h-3zm5.94 0h3v3.94h-3zm26-6h3v3.94h-3zm5.93 0h3v3.94h-3zm-5.93 6h3v3.94h-3zm5.93 0h3v3.94h-3z"></path></svg><svg width="83" height="95.08" viewBox="-10 -10 83 95.08" id="02-gift" y="93"><path d="M60.16 22.23H35.77c13.6-6.82 14.69-11.12 14.19-13.52-1.15-3.92-5.6-6.94-9.85-5.34-5.49 2.06-7.03 10.26-8.52 16.19-1.89-6-3.72-13.65-8-17.53a7.19 7.19 0 0 0-5.68-2c-3.97.35-9.65 5.32-7.35 10.85 2.22 5.31 9.54 8.67 14.36 11.35H2.83A2.84 2.84 0 0 0 0 25.07v11.18a2.84 2.84 0 0 0 2.83 2.83h.27v36h56.96v-36h.1A2.84 2.84 0 0 0 63 36.25V25.07a2.85 2.85 0 0 0-2.84-2.84zM41.77 5.87c2.08-.3 4.91 1.29 5.18 3.17.39 2.73-3.35 5.2-5 6.35-2.49 1.72-4.86 2.6-7.18 4 .87-3.64 2.5-12.85 7-13.52zm-22.53 9.85c-2.19-1.47-6.44-4.38-6.34-7.68.11-3.55 5.66-6.49 8.68-3.84 3.8 3.33 5.63 10.98 7.01 16.36-3.2-1.52-6.23-2.75-9.35-4.84zm5.88 56.43H6.04V39.08h19.07v33.07zm0-36.07H3V25.23h22.11v10.85zm10 36.07h-7.06V25.23h7.07v46.92zm22.02 0H38.05V39.08h19.07v33.07zM60 36.08H38.05V25.23H60v10.85z"></path></svg><svg width="96.17" height="88.96" viewBox="-10 -10 96.17 88.96" id="03-eat" y="189"><path d="M71.91 46.04H4.25A4.26 4.26 0 0 0 0 50.3v3.46A4.27 4.27 0 0 0 4.25 58h.96v1.04a9.95 9.95 0 0 0 9.92 9.92h45.9a9.95 9.95 0 0 0 9.93-9.92V58h.95a4.26 4.26 0 0 0 4.26-4.25v-3.46a4.26 4.26 0 0 0-4.26-4.25zm-3.95 13c0 3.81-3.1 6.92-6.92 6.92H15.13a6.93 6.93 0 0 1-6.92-6.92V58h59.75v1.04zm5.2-5.3c0 .69-.57 1.26-1.25 1.26H4.25C3.57 55 3 54.43 3 53.75v-3.46c0-.68.57-1.25 1.25-1.25h67.66c.68 0 1.26.57 1.26 1.25v3.46zm-57-15.88l5.48 4 5.47-4 5.48 4 5.48-4 5.48 4 5.48-4 5.48 4 5.47-4 5.49 4 6.37-4.65-1.77-2.42-4.6 3.35-5.49-4-5.47 4-5.48-4-5.48 4-5.48-4-5.48 4-5.48-4-5.47 4-5.48-4-5.47 4-4.6-3.35-1.77 2.42 6.37 4.65zm54.73-6.76c.04-.62.05-2.62.04-3C70.24 12.47 55.8 0 38.08 0S5.92 12.48 5.24 28.1c-.02.38 0 2.38.04 3h65.6zM38.09 3C54.1 3 67.22 14.15 67.91 28.1H8.24C8.94 14.14 22.05 3 38.08 3z"></path><circle cx="38.08" cy="15.04" r="2"></circle><circle cx="30.08" cy="10.08" r="2"></circle><circle cx="46.08" cy="10.08" r="2"></circle></svg><svg version="1" width="43.05" height="36.25" viewBox="-10 -10 43.05 36.25" id="04-tick" y="278"><path d="M22.8 1.3L21.75.25a.85.85 0 0 0-1.2 0L8.69 12.1 2.5 5.91a.85.85 0 0 0-1.2 0L.25 6.96a.85.85 0 0 0 0 1.2L8.08 16a.87.87 0 0 0 1.22 0L22.8 2.5a.85.85 0 0 0 0-1.2z"></path></svg><svg width="36" height="36" viewBox="-10 -10 36 36" id="05-mail" y="315"><path d="M8 10c-.27 0-.5-.1-1-.34L0 6v7a1 1 0 0 0 1 1h14a1 1 0 0 0 1-1V6L9 9.66c-.5.25-.73.34-1 .34zm7-8H1a1 1 0 0 0-1 1v.76l8 4.2 8-4.2V3a1 1 0 0 0-1-1z"></path></svg><svg version="1" width="38" height="38" viewBox="-10 -10 38 38" id="06-phone" y="351"><path fill="#010101" d="M3.6 7.8c1.4 2.8 3.8 5.1 6.6 6.6l2.2-2.2c.3-.3.7-.4 1-.2 1.1.4 2.3.6 3.6.6.6 0 1 .4 1 1V17c0 .6-.4 1-1 1C7.6 18 0 10.4 0 1c0-.6.4-1 1-1h3.5c.6 0 1 .4 1 1 0 1.2.2 2.4.6 3.6.1.3 0 .7-.2 1L3.6 7.8z"></path></svg><svg version="1" width="28.67" height="38.94" viewBox="-10 -10 28.67 38.94" fill="#fff" id="07-facebook" y="389"><path d="M6.28 3.36h2.4V0H5.8C2.65.18 1.54 2.39 1.94 6.11H0v3.52h1.96v9.31H5.8v-9.3h2.85V6.1H5.8c-.03-1.04-.04-2.4.49-2.75z"></path></svg><svg version="1" width="37.5" height="34.66" viewBox="-10 -10 37.5 34.66" fill="#fff" id="08-twitter" y="428"><path fill-rule="evenodd" clip-rule="evenodd" d="M11.28.15c1.74-.48 3.08.27 3.69 1.15.7-.22 1.37-.47 2.07-.69 0 .84-.54 1.48-.88 1.73.7.17 1.34-.48 1.34-.48a2.9 2.9 0 0 1-1.61 1.98c-.24 6.59-3.27 10.95-10.38 10.82h-.46c-.43 0-4.3-.45-5.05-1.84 2.34.19 4.01-.42 4.83-1.15-.98-.3-2.76-.47-3.06-2.88.36.1.58.22 1.22.11C1.76 8.07.4 7.37.46 5.22c.3.32 1.1.52 1.38.46C1.12 5.44-.19 2.4.92.84 2.8 2.65 4.77 4.36 8.3 4.53c.22-2.24 1.17-3.74 3-4.38z"></path></svg><svg version="1" width="39.980000000000004" height="34.019999999999996" viewBox="-10 -10 39.980000000000004 34.019999999999996" fill="#fff" id="09-youtube" y="463"><path d="M17.14 0H2.84A2.84 2.84 0 0 0 0 2.83v8.35a2.84 2.84 0 0 0 2.83 2.83h14.32a2.84 2.84 0 0 0 2.83-2.83V2.84A2.84 2.84 0 0 0 17.14 0zM7.04 10.4V3.61L13.8 7l-6.76 3.38z"></path></svg></svg>