<svg xmlns="http://www.w3.org/2000/svg" xmlns:xlink="http://www.w3.org/1999/xlink"><symbol id="developer" viewBox="0 0 26.94 34.09"><path d="M13.62.02L13.47 0 0 1.41v24.66l13.47 8.02L26.9 26.1l.05-.03V1.42L13.62.01zm11.4 12.1L13.49 5.34v-.1l-.08.05-.1-.06v.11L1.94 12.12V3.15l11.54-1.21 11.55 1.2v8.99zM13.4 6.8l11.52 6.71-4.48 2.64-7.09-4.22-.01 1.41 5.9 3.52-.86.5-5.03-2.99-.01 1.42 3.82 2.27-.78.52-3.03-1.78-.01 1.41 1.85 1.1-1.8 1.07-11.36-6.75L13.41 6.8zM1.93 15.13l11.4 6.79.02 1.04-7.94-4.73-.02 1.42 7.98 4.8.02 1.07-7.97-4.74-.01 1.41 8.02 4.83.04.02 8.15-4.87-.02-5.18 3.42-2.03v10.02l-11.55 6.87-11.54-6.87v-9.85z"/></symbol><symbol id="fullscreen" viewBox="0 0 20 20"><path d="M0 0v6h3V3h3V0H3zm3 14H0v6h6v-3H3zM17 0h-3v3h3v3h3V0zm0 17h-3v3h6v-6h-3z"/></symbol><symbol id="replay" viewBox="0 0 16 20"><path d="M8 4V0L3 5l5 5V6a6 6 0 1 1-6 6H0a8 8 0 1 0 8-8z"/></symbol><symbol id="subtitles" viewBox="0 0 32 20"><path d="M29 0H3a3 3 0 0 0-3 3v14a3 3 0 0 0 3 3h26a3 3 0 0 0 3-3V3a3 3 0 0 0-3-3zM14.4 15.85c-.54.11-1.1.17-1.67.17-.7 0-1.36-.1-1.98-.32-.62-.22-1.17-.57-1.65-1.05s-.85-1.1-1.13-1.86A8.15 8.15 0 0 1 7.55 10c0-1.13.16-2.08.47-2.85a5.2 5.2 0 0 1 1.23-1.86c.5-.46 1.06-.8 1.68-1 .61-.2 1.23-.31 1.85-.31a7.6 7.6 0 0 1 2.81.45l-.45 1.92a3.54 3.54 0 0 0-.9-.27A8.24 8.24 0 0 0 12.97 6c-.91 0-1.65.33-2.2.98-.56.65-.84 1.66-.84 3.03 0 .6.07 1.14.2 1.63.13.5.33.91.6 1.26.27.35.61.62 1.01.81.4.2.87.3 1.4.3.5 0 .91-.06 1.26-.16.34-.1.63-.22.89-.38l.46 1.84c-.35.25-.8.43-1.35.54zm8.7 0a8.4 8.4 0 0 1-1.68.17c-.7 0-1.35-.1-1.97-.32-.63-.22-1.18-.57-1.65-1.05s-.85-1.1-1.13-1.86a8.13 8.13 0 0 1-.42-2.79c0-1.13.15-2.08.47-2.85a5.2 5.2 0 0 1 1.22-1.86c.5-.46 1.06-.8 1.68-1 .62-.2 1.23-.31 1.85-.31a6.95 6.95 0 0 1 2.81.45l-.44 1.91c-.26-.12-.56-.2-.9-.26A8.57 8.57 0 0 0 21.67 6c-.92 0-1.65.33-2.2.98-.56.65-.84 1.66-.84 3.03 0 .6.07 1.14.2 1.63.13.5.33.91.6 1.26.27.35.6.62 1 .81.41.2.88.3 1.4.3a4.5 4.5 0 0 0 2.16-.54l.46 1.84c-.35.25-.8.43-1.35.54z"/></symbol></svg>